<?xml version="1.0" encoding="utf-8"?>
<svg width="118px" height="104px" viewBox="0 0 118 104" version="1.1" xmlns:xlink="http://www.w3.org/1999/xlink" xmlns="http://www.w3.org/2000/svg">
  <desc>Created with Lunacy</desc>
  <g id="noun_education_2436445">
    <g id="Group">
      <path d="M112.479 88.8869L104.677 86.8666L104.677 83.7828C107.007 81.8851 108.484 79.1414 108.484 76.0817L108.484 72.6283C108.484 66.9147 103.362 62.2681 97.0645 62.2681L97.0645 29.4609L100.871 29.4609L100.871 19.1007L83.7419 19.1007L83.7419 12.9174L91.3054 10.4672L59 0L26.6946 10.4672L34.2581 12.9174L34.2581 19.1007L17.129 19.1007L17.129 29.4609L20.9355 29.4609L20.9355 62.2681C14.6377 62.2681 9.51613 66.9147 9.51613 72.6283L9.51613 76.0817C9.51613 79.1397 10.993 81.8834 13.3226 83.7828L13.3226 86.8684L5.52126 88.8886C2.27055 89.7295 0 92.4611 0 95.5295L0 103.709L118 103.709L118 95.5295C118 92.4611 115.729 89.7295 112.479 88.8869L112.479 88.8869ZM100.871 87.692C100.399 88.3533 99.0876 89.8952 97.0645 89.8952C95.0414 89.8952 93.7301 88.3533 93.2581 87.692L93.2581 85.8375C94.4514 86.2226 95.7285 86.4418 97.0645 86.4418C98.4006 86.4418 99.6777 86.2208 100.871 85.8375L100.871 87.692L100.871 87.692ZM104.677 72.6283L104.677 76.0817C104.677 79.8908 101.263 82.9885 97.0645 82.9885C92.866 82.9885 89.4516 79.8908 89.4516 76.0817L89.4516 72.6283C89.4516 68.8192 92.866 65.7215 97.0645 65.7215C101.263 65.7215 104.677 68.8192 104.677 72.6283L104.677 72.6283ZM57.0968 20.3163L57.0968 27.0659L45.6774 23.6125L45.6774 16.6177L57.0968 20.3163L57.0968 20.3163ZM60.9032 20.3163L79.9355 14.1503L79.9355 21.3091L60.9032 27.0659L60.9032 20.3163L60.9032 20.3163ZM59 3.6675L79.985 10.4672L59 17.267L48.9395 14.007L59.668 10.3567L58.3301 7.12262L43.3859 12.2077L38.015 10.4672L59 3.6675L59 3.6675ZM41.871 15.3831L41.871 22.4609L38.0645 21.3092L38.0645 14.1503L41.871 15.3831L41.871 15.3831ZM24.7419 29.4609L28.5484 29.4609L28.5484 36.3677L32.3548 36.3677L32.3548 26.0075L20.9355 26.0075L20.9355 22.5541L34.2581 22.5541L34.2581 23.7991L41.871 26.1007L41.871 33.232C39.6613 33.9469 38.0645 35.8462 38.0645 38.0944L38.0645 46.7279L49.4839 46.7279L49.4839 38.0944C49.4839 35.8462 47.8871 33.9469 45.6774 33.232L45.6774 27.2507L59 31.2791L83.7419 23.7973L83.7419 22.5541L97.0645 22.5541L97.0645 26.0075L85.6452 26.0075L85.6452 36.3677L89.4516 36.3677L89.4516 29.4609L93.2581 29.4609L93.2581 62.8725C88.8293 64.2987 85.6452 68.1268 85.6452 72.6283L85.6452 76.0817C85.6452 79.1397 87.1221 81.8834 89.4516 83.7828L89.4516 86.8684L81.6503 88.8886C80.2076 89.2633 78.9763 90.0231 78.0322 91.0056C77.0883 90.0231 75.8569 89.2633 74.4142 88.8886L66.6129 86.8667L66.6129 83.7828C68.9424 81.8851 70.4193 79.1414 70.4193 76.0817L70.4193 72.6283C70.4193 66.9147 65.2978 62.2681 59 62.2681C52.7022 62.2681 47.5806 66.9147 47.5806 72.6283L47.5806 76.0817C47.5806 79.1397 49.0575 81.8834 51.3871 83.7828L51.3871 86.8684L43.5858 88.8886C42.1431 89.2633 40.9117 90.0231 39.9677 91.0056C39.0237 90.0231 37.7924 89.2633 36.3497 88.8886L28.5484 86.8667L28.5484 83.7828C30.8779 81.8851 32.3548 79.1414 32.3548 76.0817L32.3548 72.6283C32.3548 68.1268 29.1707 64.2987 24.7419 62.8725L24.7419 29.4609L24.7419 29.4609ZM45.6774 38.0944L45.6774 43.2745L41.871 43.2745L41.871 38.0944C41.871 37.1412 42.7236 36.3677 43.7742 36.3677C44.8248 36.3677 45.6774 37.1412 45.6774 38.0944L45.6774 38.0944ZM76.1291 100.255L41.871 100.255L41.871 95.5295C41.871 93.9944 43.0072 92.6303 44.6306 92.209L52.4719 90.1767C53.5758 91.4821 55.7246 93.3487 59 93.3487C62.2755 93.3487 64.4242 91.4821 65.5281 90.175L73.3694 92.2073C74.9947 92.6286 76.1291 93.9927 76.1291 95.5277L76.1291 100.255L76.1291 100.255ZM59 82.9885C54.8015 82.9885 51.3871 79.8908 51.3871 76.0817L51.3871 72.6283C51.3871 68.8192 54.8015 65.7215 59 65.7215C63.1985 65.7215 66.6129 68.8192 66.6129 72.6283L66.6129 76.0817C66.6129 79.8908 63.1985 82.9885 59 82.9885L59 82.9885ZM59 86.4418C60.3361 86.4418 61.6131 86.2208 62.8065 85.8375L62.8065 87.692C62.3344 88.3533 61.0231 89.8952 59 89.8952C56.9769 89.8952 55.6655 88.3533 55.1935 87.692L55.1935 85.8375C56.3869 86.2208 57.6639 86.4418 59 86.4418L59 86.4418ZM13.3226 72.6283C13.3226 68.8192 16.737 65.7215 20.9355 65.7215C25.134 65.7215 28.5484 68.8192 28.5484 72.6283L28.5484 76.0817C28.5484 79.8908 25.134 82.9885 20.9355 82.9885C16.737 82.9885 13.3226 79.8908 13.3226 76.0817L13.3226 72.6283L13.3226 72.6283ZM20.9355 86.4418C22.2715 86.4418 23.5486 86.2208 24.7419 85.8375L24.7419 87.692C24.2699 88.3533 22.9586 89.8952 20.9355 89.8952C18.9124 89.8952 17.601 88.3533 17.129 87.692L17.129 85.8375C18.3224 86.2208 19.5994 86.4418 20.9355 86.4418L20.9355 86.4418ZM3.80645 95.5295C3.80645 93.9944 4.94268 92.6303 6.56613 92.209L14.4074 90.1767C15.5113 91.4821 17.66 93.3487 20.9355 93.3487C24.2109 93.3487 26.3597 91.4821 27.4636 90.175L35.3048 92.2073C36.9302 92.6286 38.0645 93.9927 38.0645 95.5277L38.0645 100.255L3.80645 100.255L3.80645 95.5295L3.80645 95.5295ZM114.194 100.255L79.9355 100.255L79.9355 95.5295C79.9355 93.9944 81.0717 92.6303 82.6952 92.209L90.5364 90.1767C91.6403 91.4821 93.7891 93.3487 97.0645 93.3487C100.34 93.3487 102.489 91.4821 103.593 90.175L111.434 92.2073C113.059 92.6286 114.194 93.9927 114.194 95.5277L114.194 100.255L114.194 100.255Z" id="Shape" fill="#000000" stroke="none" />
      <path d="M0 0L3.80645 0L3.80645 3.45337L0 3.45337L0 0Z" transform="translate(85.64502 39.82109)" id="Rectangle" fill="#000000" stroke="none" />
      <path d="M0 0L3.80645 0L3.80645 3.45337L0 3.45337L0 0Z" transform="translate(85.64502 46.72786)" id="Rectangle" fill="#000000" stroke="none" />
      <path d="M0 0L3.8065 0L3.8065 29.3538L0 29.3538L0 0Z" transform="translate(78.03223 27.73419)" id="Rectangle" fill="#000000" stroke="none" />
      <path d="M0 0L3.80644 0L3.80644 3.45338L0 3.45338L0 0Z" transform="translate(70.41943 31.18759)" id="Rectangle" fill="#000000" stroke="none" />
      <path d="M0 0L3.80644 0L3.80644 3.4534L0 3.4534L0 0Z" transform="translate(70.41943 38.09438)" id="Rectangle" fill="#000000" stroke="none" />
      <path d="M0 0L3.80644 0L3.80644 18.9936L0 18.9936L0 0Z" transform="translate(70.41943 45.00115)" id="Rectangle" fill="#000000" stroke="none" />
      <path d="M0 0L3.80646 0L3.80646 3.45337L0 3.45337L0 0Z" transform="translate(28.54834 39.82109)" id="Rectangle" fill="#000000" stroke="none" />
      <path d="M0 0L3.80646 0L3.80646 3.45337L0 3.45337L0 0Z" transform="translate(28.54834 46.72786)" id="Rectangle" fill="#000000" stroke="none" />
      <path d="M0 0L3.80644 0L3.80644 13.8136L0 13.8136L0 0Z" transform="translate(43.77417 50.18124)" id="Rectangle" fill="#000000" stroke="none" />
      <path d="M0 0L3.80647 0L3.80647 6.90679L0 6.90679L0 0Z" transform="translate(36.16138 50.18124)" id="Rectangle" fill="#000000" stroke="none" />
      <path d="M3.14032 14.19L8.22383 13.0762L13.3074 14.1917L13.707 9.46228L16.4477 5.42009L11.6116 3.61397L8.22383 0L4.83609 3.61224L0 5.41837L2.74064 9.46055L3.14032 14.19L3.14032 14.19ZM7.13709 6.48891L8.22383 5.32857L9.31057 6.48891L10.8598 7.06735L9.9805 8.3641L9.85299 9.88013L8.22383 9.52098L6.59467 9.88013L6.46716 8.3641L5.58787 7.06735L7.13709 6.48891L7.13709 6.48891Z" transform="translate(50.77612 46.77968)" id="Shape" fill="#000000" stroke="none" />
      <path d="M0 0L3.80646 0L3.80646 3.45338L0 3.45338L0 0Z" transform="translate(57.09668 34.64097)" id="Rectangle" fill="#000000" stroke="none" />
      <path d="M0 0L3.80646 0L3.80646 3.45337L0 3.45337L0 0Z" transform="translate(57.09668 41.54779)" id="Rectangle" fill="#000000" stroke="none" />
    </g>
  </g>
</svg>