<?xml version="1.0" encoding="utf-8"?>
<svg width="118px" height="115px" viewBox="0 0 118 115" version="1.1" xmlns:xlink="http://www.w3.org/1999/xlink" xmlns="http://www.w3.org/2000/svg">
  <desc>Created with Lunacy</desc>
  <g id="noun_education_2436445">
    <g id="Group">
      <path d="M112.479 97.9743L104.677 95.7475L104.677 92.3483C107.007 90.2567 108.484 87.2325 108.484 83.8599L108.484 80.0535C108.484 73.7557 103.362 68.6341 97.0645 68.6341L97.0645 32.4728L100.871 32.4728L100.871 21.0535L83.7419 21.0535L83.7419 14.238L91.3054 11.5374L59 0L26.6946 11.5374L34.2581 14.238L34.2581 21.0535L17.129 21.0535L17.129 32.4728L20.9355 32.4728L20.9355 68.6341C14.6377 68.6341 9.51613 73.7557 9.51613 80.0535L9.51613 83.8599C9.51613 87.2306 10.993 90.2548 13.3226 92.3483L13.3226 95.7494L5.52126 97.9762C2.27055 98.903 0 101.914 0 105.296L0 114.312L118 114.312L118 105.296C118 101.914 115.729 98.903 112.479 97.9743L112.479 97.9743ZM100.871 96.6572C100.399 97.3861 99.0876 99.0857 97.0645 99.0857C95.0414 99.0857 93.7301 97.3861 93.2581 96.6572L93.2581 94.6131C94.4514 95.0376 95.7285 95.2793 97.0645 95.2793C98.4006 95.2793 99.6777 95.0357 100.871 94.6131L100.871 96.6572L100.871 96.6572ZM104.677 80.0535L104.677 83.8599C104.677 88.0584 101.263 91.4728 97.0645 91.4728C92.866 91.4728 89.4516 88.0584 89.4516 83.8599L89.4516 80.0535C89.4516 75.855 92.866 72.4406 97.0645 72.4406C101.263 72.4406 104.677 75.855 104.677 80.0535L104.677 80.0535ZM57.0968 22.3934L57.0968 29.833L45.6774 26.0266L45.6774 18.3166L57.0968 22.3934L57.0968 22.3934ZM60.9032 22.3933L79.9355 15.5969L79.9355 23.4877L60.9032 29.833L60.9032 22.3933L60.9032 22.3933ZM59 4.04245L79.985 11.5374L59 19.0323L48.9395 15.439L59.668 11.4156L58.3301 7.85081L43.3859 13.4558L38.015 11.5374L59 4.04245L59 4.04245ZM41.871 16.9558L41.871 24.7571L38.0645 23.4877L38.0645 15.5969L41.871 16.9558L41.871 16.9558ZM24.7419 32.4728L28.5484 32.4728L28.5484 40.0857L32.3548 40.0857L32.3548 28.6664L20.9355 28.6664L20.9355 24.8599L34.2581 24.8599L34.2581 26.2322L41.871 28.7692L41.871 36.6295C39.6613 37.4174 38.0645 39.511 38.0645 41.989L38.0645 51.5051L49.4839 51.5051L49.4839 41.989C49.4839 39.511 47.8871 37.4174 45.6774 36.6295L45.6774 30.0367L59 34.4769L83.7419 26.2303L83.7419 24.8599L97.0645 24.8599L97.0645 28.6664L85.6452 28.6664L85.6452 40.0857L89.4516 40.0857L89.4516 32.4728L93.2581 32.4728L93.2581 69.3003C88.8293 70.8723 85.6452 75.0918 85.6452 80.0535L85.6452 83.8599C85.6452 87.2306 87.1221 90.2548 89.4516 92.3483L89.4516 95.7494L81.6503 97.9762C80.2076 98.3892 78.9763 99.2266 78.0322 100.31C77.0883 99.2266 75.8569 98.3892 74.4142 97.9762L66.6129 95.7475L66.6129 92.3483C68.9424 90.2567 70.4193 87.2325 70.4193 83.8599L70.4193 80.0535C70.4193 73.7557 65.2978 68.6341 59 68.6341C52.7022 68.6341 47.5806 73.7557 47.5806 80.0535L47.5806 83.8599C47.5806 87.2306 49.0575 90.2548 51.3871 92.3483L51.3871 95.7494L43.5858 97.9762C42.1431 98.3892 40.9117 99.2266 39.9677 100.31C39.0237 99.2266 37.7924 98.3892 36.3497 97.9762L28.5484 95.7475L28.5484 92.3483C30.8779 90.2567 32.3548 87.2325 32.3548 83.8599L32.3548 80.0535C32.3548 75.0918 29.1707 70.8723 24.7419 69.3003L24.7419 32.4728L24.7419 32.4728ZM45.6774 41.989L45.6774 47.6986L41.871 47.6986L41.871 41.989C41.871 40.9384 42.7236 40.0857 43.7742 40.0857C44.8248 40.0857 45.6774 40.9384 45.6774 41.989L45.6774 41.989ZM76.1291 110.505L41.871 110.505L41.871 105.296C41.871 103.604 43.0072 102.1 44.6306 101.636L52.4719 99.396C53.5758 100.835 55.7246 102.892 59 102.892C62.2755 102.892 64.4242 100.835 65.5281 99.3941L73.3694 101.634C74.9947 102.099 76.1291 103.602 76.1291 105.294L76.1291 110.505L76.1291 110.505ZM59 91.4728C54.8015 91.4728 51.3871 88.0584 51.3871 83.8599L51.3871 80.0535C51.3871 75.855 54.8015 72.4406 59 72.4406C63.1985 72.4406 66.6129 75.855 66.6129 80.0535L66.6129 83.8599C66.6129 88.0584 63.1985 91.4728 59 91.4728L59 91.4728ZM59 95.2793C60.3361 95.2793 61.6131 95.0357 62.8065 94.6131L62.8065 96.6572C62.3344 97.3861 61.0231 99.0857 59 99.0857C56.9769 99.0857 55.6655 97.3861 55.1935 96.6572L55.1935 94.6131C56.3869 95.0357 57.6639 95.2793 59 95.2793L59 95.2793ZM13.3226 80.0535C13.3226 75.855 16.737 72.4406 20.9355 72.4406C25.134 72.4406 28.5484 75.855 28.5484 80.0535L28.5484 83.8599C28.5484 88.0584 25.134 91.4728 20.9355 91.4728C16.737 91.4728 13.3226 88.0584 13.3226 83.8599L13.3226 80.0535L13.3226 80.0535ZM20.9355 95.2793C22.2715 95.2793 23.5486 95.0357 24.7419 94.6131L24.7419 96.6572C24.2699 97.3861 22.9586 99.0857 20.9355 99.0857C18.9124 99.0857 17.601 97.3861 17.129 96.6572L17.129 94.6131C18.3224 95.0357 19.5994 95.2793 20.9355 95.2793L20.9355 95.2793ZM3.80645 105.296C3.80645 103.604 4.94268 102.1 6.56613 101.636L14.4074 99.396C15.5113 100.835 17.66 102.892 20.9355 102.892C24.2109 102.892 26.3597 100.835 27.4636 99.3941L35.3048 101.634C36.9302 102.099 38.0645 103.602 38.0645 105.294L38.0645 110.505L3.80645 110.505L3.80645 105.296L3.80645 105.296ZM114.194 110.505L79.9355 110.505L79.9355 105.296C79.9355 103.604 81.0717 102.1 82.6952 101.636L90.5364 99.396C91.6403 100.835 93.7891 102.892 97.0645 102.892C100.34 102.892 102.489 100.835 103.593 99.3941L111.434 101.634C113.059 102.099 114.194 103.602 114.194 105.294L114.194 110.505L114.194 110.505Z" id="Shape" fill="#FFFFFF" fill-opacity="0.698039234" stroke="none" />
      <path d="M0 0L3.80645 0L3.80645 3.80643L0 3.80643L0 0Z" transform="translate(85.64514 43.89221)" id="Rectangle" fill="#FFFFFF" fill-opacity="0.698039234" stroke="none" />
      <path d="M0 0L3.80645 0L3.80645 3.80644L0 3.80644L0 0Z" transform="translate(85.64514 51.5051)" id="Rectangle" fill="#FFFFFF" fill-opacity="0.698039234" stroke="none" />
      <path d="M0 0L3.8065 0L3.8065 32.3548L0 32.3548L0 0Z" transform="translate(78.03223 30.56961)" id="Rectangle" fill="#FFFFFF" fill-opacity="0.698039234" stroke="none" />
      <path d="M0 0L3.80644 0L3.80644 3.80645L0 3.80645L0 0Z" transform="translate(70.41937 34.37607)" id="Rectangle" fill="#FFFFFF" fill-opacity="0.698039234" stroke="none" />
      <path d="M0 0L3.80644 0L3.80644 3.80645L0 3.80645L0 0Z" transform="translate(70.41937 41.98898)" id="Rectangle" fill="#FFFFFF" fill-opacity="0.698039234" stroke="none" />
      <path d="M0 0L3.80644 0L3.80644 20.9355L0 20.9355L0 0Z" transform="translate(70.41937 49.60187)" id="Rectangle" fill="#FFFFFF" fill-opacity="0.698039234" stroke="none" />
      <path d="M0 0L3.80646 0L3.80646 3.80643L0 3.80643L0 0Z" transform="translate(28.54839 43.89221)" id="Rectangle" fill="#FFFFFF" fill-opacity="0.698039234" stroke="none" />
      <path d="M0 0L3.80646 0L3.80646 3.80644L0 3.80644L0 0Z" transform="translate(28.54839 51.5051)" id="Rectangle" fill="#FFFFFF" fill-opacity="0.698039234" stroke="none" />
      <path d="M0 0L3.80645 0L3.80645 15.2258L0 15.2258L0 0Z" transform="translate(43.7742 55.31155)" id="Rectangle" fill="#FFFFFF" fill-opacity="0.698039234" stroke="none" />
      <path d="M0 0L3.80647 0L3.80647 7.61288L0 7.61288L0 0Z" transform="translate(36.16129 55.31155)" id="Rectangle" fill="#FFFFFF" fill-opacity="0.698039234" stroke="none" />
      <path d="M3.14032 15.6407L8.22383 14.4131L13.3074 15.6426L13.707 10.4297L16.4477 5.97422L11.6116 3.98345L8.22383 0L4.83609 3.98155L0 5.97232L2.74064 10.4278L3.14032 15.6407L3.14032 15.6407ZM7.13709 7.15231L8.22383 5.87335L9.31057 7.15232L10.8598 7.78989L9.9805 9.21921L9.85299 10.8902L8.22383 10.4944L6.59467 10.8902L6.46716 9.21921L5.58787 7.78989L7.13709 7.15231L7.13709 7.15231Z" transform="translate(50.77617 51.56223)" id="Shape" fill="#FFFFFF" fill-opacity="0.698039234" stroke="none" />
      <path d="M0 0L3.80646 0L3.80646 3.80644L0 3.80644L0 0Z" transform="translate(57.09677 38.18253)" id="Rectangle" fill="#FFFFFF" fill-opacity="0.698039234" stroke="none" />
      <path d="M0 0L3.80646 0L3.80646 3.80643L0 3.80643L0 0Z" transform="translate(57.09677 45.79544)" id="Rectangle" fill="#FFFFFF" fill-opacity="0.698039234" stroke="none" />
    </g>
  </g>
</svg>