<?xml version="1.0" encoding="utf-8"?>
<svg width="114px" height="114px" viewBox="0 0 114 114" version="1.1" xmlns:xlink="http://www.w3.org/1999/xlink" xmlns="http://www.w3.org/2000/svg">
  <desc>Created with Lunacy</desc>
  <g id="noun_Network_2477872">
    <path d="M104.992 73.9014C108.431 77.9061 110.323 83.0049 110.323 88.2581C110.323 92.7905 108.945 97.0048 106.594 100.513C106.331 96.7069 103.714 93.3899 100.007 92.329L93.7742 90.5491L93.7742 90.0582C96.0652 88.3316 97.4516 85.6158 97.4516 82.7419L97.4516 79.4451C97.4516 74.5027 93.7724 70.3141 89.0763 69.9059C86.4966 69.6816 83.9389 70.5513 82.0469 72.2852C80.1512 74.0246 79.0645 76.4958 79.0645 79.0645L79.0645 82.7419C79.0645 85.6158 80.4509 88.3316 82.7419 90.0582L82.7419 90.5491L76.5087 92.329C72.8129 93.3862 70.2019 96.6849 69.9243 100.474C67.5156 96.8632 66.1936 92.6195 66.1936 88.2581C66.1936 76.0913 76.0913 66.1936 88.2581 66.1936C93.5112 66.1936 98.61 68.0856 102.615 71.524L105.011 68.7328C100.34 64.7244 94.3902 62.5161 88.2581 62.5161C81.8207 62.5161 75.9442 64.9064 71.4265 68.8266L63.3141 60.7142C63.9595 59.6183 64.3548 58.3606 64.3548 57C64.3548 55.6394 63.9595 54.3817 63.3123 53.2876L83.7146 32.8853C85.5184 34.1706 87.7175 34.9355 90.0968 34.9355C91.3177 34.9355 92.4908 34.7277 93.5885 34.36L100.745 47.7807C99.8511 48.7607 99.2903 50.0534 99.2903 51.4839C99.2903 54.5251 101.765 57 104.806 57C107.848 57 110.323 54.5251 110.323 51.4839C110.323 48.4426 107.848 45.9677 104.806 45.9677C104.529 45.9677 104.26 46.01 103.994 46.0505L96.832 32.6224C99.4393 30.6016 101.129 27.4501 101.129 23.9032C101.129 21.5239 100.364 19.3248 99.0789 17.5211L106.121 10.4806C106.84 10.8226 107.634 11.0323 108.484 11.0323C111.525 11.0323 114 8.55735 114 5.51613C114 2.4749 111.525 0 108.484 0C105.443 0 102.968 2.4749 102.968 5.51613C102.968 6.36561 103.176 7.15994 103.521 7.87887L96.4789 14.9193C94.6752 13.6359 92.4761 12.871 90.0968 12.871C87.7175 12.871 85.5184 13.6359 83.7146 14.9211L76.6723 7.88071C77.018 7.15994 77.2258 6.36561 77.2258 5.51613C77.2258 2.4749 74.7509 0 71.7097 0C68.6684 0 66.1936 2.4749 66.1936 5.51613C66.1936 8.55735 68.6684 11.0323 71.7097 11.0323C72.5592 11.0323 73.3535 10.8226 74.0724 10.4788L81.1147 17.5192C79.8294 19.3248 79.0645 21.5239 79.0645 23.9032C79.0645 26.2825 79.8294 28.4816 81.1147 30.2854L60.7124 50.6877C59.6183 50.0405 58.3606 49.6452 57 49.6452C55.6394 49.6452 54.3817 50.0423 53.2876 50.6877L45.1477 42.5477C49.0844 38.0116 51.4839 32.1241 51.4839 25.7419C51.4839 12.3708 41.0363 1.10506 27.7002 0.0974524L27.4244 3.76384C38.8538 4.62803 47.8064 14.2831 47.8064 25.7419C47.8064 30.2229 46.4237 34.4188 44.072 37.9289C43.7834 34.1504 41.1761 30.8646 37.4913 29.8128L31.2581 28.033L31.2581 27.5439C33.5491 25.8173 34.9355 23.1015 34.9355 20.2276L34.9355 16.9327C34.9355 11.9902 31.2562 7.80165 26.5602 7.39345C23.9786 7.16729 21.4228 8.037 19.5308 9.77274C17.6351 11.5085 16.5484 13.9797 16.5484 16.5484L16.5484 20.2258C16.5484 23.0997 17.9348 25.8173 20.2258 27.542L20.2258 28.0311L13.9926 29.8128C10.306 30.8646 7.69868 34.1504 7.41184 37.9289C5.06013 34.4188 3.67742 30.2229 3.67742 25.7419C3.67742 14.2831 12.6301 4.62803 24.0595 3.76384L23.7837 0.0974516C10.4475 1.10506 0 12.3708 0 25.7419C0 39.113 10.4475 50.3788 23.7837 51.3864L24.0595 47.72C18.2271 47.2787 13.0512 44.5409 9.36823 40.4516L42.1156 40.4516C38.4345 44.5409 33.2567 47.2787 27.4244 47.72L27.7002 51.3864C33.3707 50.958 38.5063 48.6614 42.5514 45.1513L50.6859 53.2876C50.0405 54.3817 49.6452 55.6412 49.6452 57C49.6452 58.3606 50.0405 59.6183 50.6877 60.7124L30.2854 81.1147C28.4816 79.8294 26.2825 79.0645 23.9032 79.0645C21.8825 79.0645 19.9923 79.6198 18.3614 80.5723L10.2435 70.8308C10.7325 70.007 11.0323 69.0583 11.0323 68.0323C11.0323 64.991 8.55735 62.5161 5.51613 62.5161C2.4749 62.5161 0 64.991 0 68.0323C0 71.0735 2.4749 73.5484 5.51613 73.5484C6.18726 73.5484 6.82345 73.4105 7.41919 73.1898L15.5334 82.9295C13.8786 84.8583 12.871 87.3608 12.871 90.0968C12.871 92.4761 13.6359 94.6752 14.9211 96.4789L7.87887 103.521C7.15994 103.176 6.36561 102.968 5.51613 102.968C2.4749 102.968 0 105.443 0 108.484C0 111.525 2.4749 114 5.51613 114C8.55735 114 11.0323 111.525 11.0323 108.484C11.0323 107.634 10.8245 106.84 10.4788 106.121L17.5211 99.0789C19.3248 100.364 21.5239 101.129 23.9032 101.129C27.0621 101.129 29.9085 99.7868 31.9218 97.652L40.6373 103.462C40.527 103.894 40.4516 104.339 40.4516 104.806C40.4516 107.848 42.9265 110.323 45.9677 110.323C49.009 110.323 51.4839 107.848 51.4839 104.806C51.4839 101.765 49.009 99.2903 45.9677 99.2903C44.7303 99.2903 43.5995 99.7132 42.6783 100.405L33.9665 94.5961C34.5843 93.2207 34.9355 91.7001 34.9355 90.0968C34.9355 87.7175 34.1706 85.5184 32.8853 83.7146L53.2876 63.3123C54.3817 63.9595 55.6394 64.3548 57 64.3548C58.3606 64.3548 59.6183 63.9595 60.7124 63.3123L68.8247 71.4247C64.9064 75.9442 62.5161 81.8207 62.5161 88.2581C62.5161 94.3902 64.7244 100.34 68.7346 105.009L71.1121 102.968L104.658 102.968C100.616 107.469 94.7708 110.323 88.2581 110.323C83.0049 110.323 77.9061 108.431 73.9014 104.992L71.5056 107.783C76.1759 111.792 82.126 114 88.2581 114C102.453 114 114 102.453 114 88.2581C114 82.126 111.792 76.1759 107.781 71.5074L104.992 73.9014L104.992 73.9014ZM106.645 51.4839C106.645 52.497 105.821 53.3226 104.806 53.3226C103.791 53.3226 102.968 52.497 102.968 51.4839C102.968 50.4707 103.791 49.6452 104.806 49.6452C105.821 49.6452 106.645 50.4707 106.645 51.4839L106.645 51.4839ZM11.354 36.7742C11.9387 35.1469 13.2792 33.8414 15.002 33.3487L23.9032 30.8057L23.9032 25.5029L22.9894 24.9715C21.2592 23.9639 20.2258 22.1895 20.2258 20.2258L20.2258 16.5484C20.2258 15.0075 20.8767 13.5237 22.0167 12.4812C23.1677 11.4257 24.6773 10.9201 26.2421 11.0543C29.0553 11.2989 31.2581 13.8786 31.2581 16.9308L31.2581 20.2258C31.2581 22.1895 30.2247 23.9639 28.4945 24.9715L27.5806 25.5029L27.5806 30.8057L36.4818 33.3487C38.2065 33.8414 39.5451 35.1469 40.1298 36.7742L11.354 36.7742L11.354 36.7742ZM45.9678 102.968C46.9827 102.968 47.8065 103.791 47.8065 104.806C47.8065 105.821 46.9827 106.645 45.9678 106.645C44.9528 106.645 44.129 105.821 44.129 104.806C44.129 103.791 44.9528 102.968 45.9678 102.968L45.9678 102.968ZM108.484 3.67742C109.499 3.67742 110.323 4.503 110.323 5.51613C110.323 6.52927 109.499 7.35485 108.484 7.35485C107.469 7.35485 106.645 6.52927 106.645 5.51613C106.645 4.503 107.469 3.67742 108.484 3.67742L108.484 3.67742ZM90.0968 16.5484C94.153 16.5484 97.4516 19.847 97.4516 23.9032C97.4516 27.9594 94.153 31.2581 90.0968 31.2581C86.0406 31.2581 82.7419 27.9594 82.7419 23.9032C82.7419 19.847 86.0406 16.5484 90.0968 16.5484L90.0968 16.5484ZM71.7097 7.35485C70.6947 7.35485 69.871 6.52927 69.871 5.51613C69.871 4.503 70.6947 3.67742 71.7097 3.67742C72.7246 3.67742 73.5484 4.503 73.5484 5.51613C73.5484 6.52927 72.7246 7.35485 71.7097 7.35485L71.7097 7.35485ZM3.67742 68.0322C3.67742 67.0173 4.50116 66.1935 5.51613 66.1935C6.53111 66.1935 7.35485 67.0173 7.35485 68.0322C7.35485 69.0472 6.53111 69.871 5.51613 69.871C4.50116 69.871 3.67742 69.0472 3.67742 68.0322L3.67742 68.0322ZM5.51613 110.323C4.50116 110.323 3.67742 109.499 3.67742 108.484C3.67742 107.469 4.50116 106.645 5.51613 106.645C6.53111 106.645 7.35485 107.469 7.35485 108.484C7.35485 109.499 6.53111 110.323 5.51613 110.323L5.51613 110.323ZM23.9032 97.4516C19.847 97.4516 16.5484 94.153 16.5484 90.0968C16.5484 86.0406 19.847 82.7419 23.9032 82.7419C27.9594 82.7419 31.2581 86.0406 31.2581 90.0968C31.2581 94.153 27.9594 97.4516 23.9032 97.4516L23.9032 97.4516ZM53.3226 57C53.3226 54.9719 54.9719 53.3226 57 53.3226C59.0281 53.3226 60.6774 54.9719 60.6774 57C60.6774 59.0281 59.0281 60.6774 57 60.6774C54.9719 60.6774 53.3226 59.0281 53.3226 57L53.3226 57ZM73.8702 99.2903C74.4549 97.6631 75.7953 96.3576 77.5182 95.8667L86.4194 93.3219L86.4194 88.019L85.5055 87.4876C83.7753 86.48 82.7419 84.7057 82.7419 82.7419L82.7419 79.0645C82.7419 77.5218 83.3928 76.0398 84.5328 74.9973C85.6839 73.9418 87.1935 73.4362 88.7582 73.5704C91.5714 73.815 93.7742 76.3947 93.7742 79.4451L93.7742 82.7419C93.7742 84.7057 92.7408 86.48 91.0106 87.4876L90.0968 88.019L90.0968 93.3219L98.998 95.8666C100.721 96.3594 102.061 97.6649 102.646 99.2903L73.8702 99.2903L73.8702 99.2903Z" id="Shape" fill="#000000" stroke="none" />
  </g>
</svg>