<?xml version="1.0" encoding="utf-8"?>
<svg width="92px" height="130px" viewBox="0 0 92 130" version="1.1" xmlns:xlink="http://www.w3.org/1999/xlink" xmlns="http://www.w3.org/2000/svg">
  <desc>Created with Lunacy</desc>
  <g id="noun_passion_85877">
    <path d="M88.6617 82.9537C87.2413 87.4991 82.6959 91.6183 78.7186 94.6013C79.2868 89.9138 83.9743 71.7322 66.929 44.0336C66.929 44.0336 66.3608 57.5278 62.0995 65.7663C60.2529 47.5847 45.0542 0 45.0542 0C45.0542 0 28.8612 55.6812 28.4351 65.7663C24.3158 55.8233 25.1681 44.4598 25.1681 44.4598C6.56031 74.7151 11.958 94.0331 11.958 94.4592C11.958 94.6013 11.958 94.7433 11.958 94.8854C8.1228 91.7604 3.71943 87.073 2.58308 82.2435C2.58308 82.2435 -11.3372 113.777 25.4522 123.294L46.0485 129.828L65.6506 123.578C102.298 117.328 88.6617 82.9537 88.6617 82.9537L88.6617 82.9537ZM65.6506 109.09C61.3893 114.061 48.7474 123.436 47.8951 123.862L45.6224 125.567L43.2076 124.004C42.4974 123.436 29.8555 114.203 25.4521 109.232C21.3329 104.402 19.2022 99.0046 19.2022 93.4649C19.2022 89.2036 20.6227 85.7946 23.6056 82.8116C27.0146 79.4026 31.56 77.9821 36.2475 78.6924C39.6566 79.2605 42.9236 80.9651 45.4804 83.5219C48.0371 80.9651 51.3042 79.2605 54.7132 78.6924C59.4007 77.9821 64.0881 79.4026 67.3551 82.8116C70.3381 85.7946 71.7585 89.3456 71.7585 93.4649C72.0426 99.0046 69.7699 104.402 65.6506 109.09L65.6506 109.09Z" id="Shape" fill="#FFFFFF" fill-opacity="0.698039234" stroke="none" />
    <path d="M-nan(ind) -nan(ind)C-nan(ind) -nan(ind) -nan(ind) -nan(ind) -nan(ind) -nan(ind)" transform="translate(91.21851 20.73843)" id="Shape" fill="none" stroke="#FFFFFF" stroke-width="1" />
    <path d="M-nan(ind) -nan(ind)C-nan(ind) -nan(ind) -nan(ind) -nan(ind) -nan(ind) -nan(ind)" transform="translate(91.21851 20.73843)" id="Shape" fill="none" stroke="#FFFFFF" stroke-width="1" />
    <path d="M40.9087 3.01624L40.9087 3.01624C35.511 -2.38142 26.2781 -0.392806 22.0168 7.84574C22.0168 7.84574 22.0168 7.84574 22.0168 7.84574C22.0168 7.84574 22.0168 7.84574 22.0168 7.84574C17.7555 -0.392806 8.52264 -2.38142 3.12497 3.01624L3.12497 3.01624C1.13635 5.00486 0 7.27756 0 10.6866C0 16.9366 3.40906 21.482 5.25563 23.6126C9.09082 28.158 21.3066 37.1068 22.1589 37.675C23.0111 37.1068 35.0849 28.158 39.0621 23.6126C40.9087 21.482 44.3177 16.7945 44.3177 10.6866C44.1757 7.41962 42.8973 5.00486 40.9087 3.01624L40.9087 3.01624Z" transform="translate(23.60559 83.06238)" id="Shape" fill="#FFFFFF" fill-opacity="0.698039234" stroke="none" />
  </g>
</svg>